<svg width="18" height="18" viewBox="0 0 18 18" fill="none" xmlns="http://www.w3.org/2000/svg">
<path d="M17.9999 9.20248C17.9999 8.60998 17.9463 8.04748 17.8543 7.49998H9.19531V10.8825H14.1532C13.9309 11.9925 13.2796 12.93 12.3141 13.5675V15.8175H15.2719C17.0037 14.25 17.9999 11.94 17.9999 9.20248Z" fill="white"/>
<path d="M9.19567 18C11.6784 18 13.7551 17.19 15.2723 15.8175L12.3144 13.5675C11.4869 14.1075 10.437 14.4375 9.19567 14.4375C6.7972 14.4375 4.76655 12.855 4.03858 10.7175H0.98877V13.035C2.49835 15.975 5.6018 18 9.19567 18Z" fill="white"/>
<path d="M4.03831 10.7175C3.84674 10.1775 3.74713 9.6 3.74713 9C3.74713 8.4 3.85441 7.8225 4.03831 7.2825V4.965H0.988506C0.360153 6.18 0 7.545 0 9C0 10.455 0.360153 11.82 0.988506 13.035L4.03831 10.7175Z" fill="white"/>
<path d="M9.19567 3.5625C10.552 3.5625 11.7627 4.02 12.7206 4.9125L15.3413 2.3475C13.7551 0.8925 11.6784 0 9.19567 0C5.6018 0 2.49835 2.025 0.98877 4.965L4.03858 7.2825C4.76655 5.145 6.7972 3.5625 9.19567 3.5625Z" fill="white"/>
</svg>
