<svg width="92" height="22" viewBox="0 0 92 22" fill="none" xmlns="http://www.w3.org/2000/svg">
<path d="M9.288 19.408C8.648 19.408 8.088 19.272 7.608 19C7.144 18.744 6.912 18.288 6.912 17.632C6.912 17.216 7.016 16.752 7.224 16.24C7.512 16.56 7.776 16.784 8.016 16.912C8.272 17.04 8.544 17.104 8.832 17.104C9.632 17.104 10.224 16.656 10.608 15.76C11.008 14.864 11.208 13.872 11.208 12.784C11.208 10.752 10.448 9.736 8.928 9.736C8.496 9.736 8.128 9.76 7.824 9.808L5.856 19H2.4L5.664 3.736L9.216 3.256L8.088 8.584H8.232C8.84 8.584 9.408 8.392 9.936 8.008C10.464 7.608 10.888 7.112 11.208 6.52C11.528 5.912 11.688 5.304 11.688 4.696C11.688 3.96 11.424 3.344 10.896 2.848C10.384 2.352 9.592 2.104 8.52 2.104C7.544 2.104 6.592 2.328 5.664 2.776C4.736 3.208 3.976 3.864 3.384 4.744C2.808 5.624 2.52 6.688 2.52 7.936C2.52 8.528 2.576 8.944 2.688 9.184C2.8 9.408 2.856 9.536 2.856 9.568C2.008 9.568 1.368 9.4 0.936 9.064C0.504 8.712 0.288 8.144 0.288 7.36C0.288 6.272 0.696 5.24 1.512 4.264C2.328 3.288 3.408 2.504 4.752 1.912C6.096 1.304 7.512 0.999999 9 0.999999C10.12 0.999999 11.064 1.176 11.832 1.528C12.6 1.88 13.168 2.344 13.536 2.92C13.92 3.496 14.112 4.128 14.112 4.816C14.112 5.552 13.904 6.264 13.488 6.952C13.072 7.64 12.48 8.2 11.712 8.632C12.672 8.808 13.384 9.256 13.848 9.976C14.312 10.68 14.544 11.52 14.544 12.496C14.544 13.408 14.368 14.4 14.016 15.472C13.68 16.544 13.112 17.472 12.312 18.256C11.528 19.024 10.52 19.408 9.288 19.408ZM22.263 19.144C20.919 19.144 19.863 18.76 19.095 17.992C18.343 17.224 17.967 16 17.967 14.32C17.967 12.896 18.223 11.296 18.735 9.52C19.247 7.744 19.991 6.224 20.967 4.96C21.959 3.696 23.127 3.064 24.471 3.064C24.951 3.064 25.367 3.128 25.719 3.256C25.015 3.672 24.335 4.528 23.679 5.824C23.039 7.12 22.519 8.568 22.119 10.168C21.719 11.768 21.519 13.184 21.519 14.416C21.519 15.28 21.631 15.96 21.855 16.456C22.079 16.952 22.431 17.2 22.911 17.2C23.695 17.2 24.471 16.64 25.239 15.52C26.023 14.384 26.663 12.96 27.159 11.248C27.671 9.536 27.927 7.888 27.927 6.304C27.927 5.312 27.839 4.52 27.663 3.928C27.503 3.32 27.199 2.864 26.751 2.56C26.303 2.256 25.671 2.104 24.855 2.104C23.623 2.104 22.479 2.36 21.423 2.872C20.367 3.368 19.519 4.088 18.879 5.032C18.255 5.96 17.943 7.04 17.943 8.272C17.943 8.704 17.983 9.024 18.063 9.232C18.143 9.424 18.183 9.536 18.183 9.568C17.383 9.568 16.775 9.408 16.359 9.088C15.959 8.768 15.759 8.256 15.759 7.552C15.759 6.448 16.207 5.392 17.103 4.384C18.015 3.376 19.215 2.56 20.703 1.936C22.207 1.312 23.783 0.999999 25.431 0.999999C27.431 0.999999 28.879 1.544 29.775 2.632C30.671 3.72 31.119 5.224 31.119 7.144C31.119 8.856 30.799 10.64 30.159 12.496C29.519 14.352 28.527 15.928 27.183 17.224C25.855 18.504 24.215 19.144 22.263 19.144ZM37.1679 2.56C36.0799 2.944 35.2479 3.552 34.6719 4.384C34.1119 5.2 33.8319 6.192 33.8319 7.36C33.8319 7.872 33.8879 8.344 33.9999 8.776C34.1119 9.192 34.2719 9.536 34.4799 9.808C33.4559 9.808 32.6959 9.6 32.1999 9.184C31.7199 8.752 31.4799 8.096 31.4799 7.216C31.4799 6.096 31.8079 5.056 32.4639 4.096C33.1199 3.12 34.0079 2.344 35.1279 1.768C36.2479 1.192 37.4639 0.904 38.7759 0.904C39.1439 0.904 39.4639 0.927999 39.7359 0.975999C40.0079 1.024 40.3199 1.112 40.6719 1.24L43.5519 14.08L46.2399 1.048H48.5679L44.6559 19H41.3439L38.5599 7.096L35.8239 19H33.5439L37.1679 2.56ZM52.5992 21.736C52.0072 21.736 51.4872 21.688 51.0392 21.592C50.5912 21.496 50.1992 21.264 49.8632 20.896C49.5432 20.528 49.3832 19.96 49.3832 19.192C49.3832 18.12 49.7032 16.68 50.3432 14.872C50.9992 13.064 51.8552 11.248 52.9112 9.424C52.1112 9.472 51.4792 9.592 51.0152 9.784C50.5512 9.976 50.2472 10.272 50.1032 10.672C50.1672 10.672 50.2312 10.752 50.2952 10.912C50.3752 11.072 50.4152 11.24 50.4152 11.416C50.4152 11.704 50.2872 11.936 50.0312 12.112C49.7752 12.272 49.4552 12.352 49.0712 12.352C48.6232 12.352 48.2632 12.232 47.9912 11.992C47.7192 11.752 47.5832 11.408 47.5832 10.96C47.5832 10.416 47.7912 9.92 48.2072 9.472C48.6392 9.024 49.2312 8.672 49.9832 8.416C50.7352 8.144 51.5672 8.008 52.4792 8.008C52.8152 8.008 53.2312 8.032 53.7272 8.08C55.0392 6 56.4232 4.304 57.8792 2.992C59.3512 1.664 60.7512 0.999999 62.0792 0.999999C62.8472 0.999999 63.4792 1.112 63.9752 1.336L60.2072 19H56.7512L58.5992 10.288C58.0072 10.016 57.4632 9.816 56.9672 9.688C56.4712 9.56 55.9432 9.472 55.3832 9.424C54.4712 11.392 53.7192 13.408 53.1272 15.472C52.5512 17.52 52.2632 19.16 52.2632 20.392C52.2632 21 52.3752 21.448 52.5992 21.736ZM60.2072 2.704C59.5192 3.072 58.7992 3.76 58.0472 4.768C57.3112 5.76 56.5912 6.968 55.8872 8.392C57.0392 8.616 58.0152 8.896 58.8152 9.232L60.2072 2.704ZM71.1024 2.512C69.8864 2.912 68.9424 3.576 68.2704 4.504C67.6144 5.416 67.2864 6.552 67.2864 7.912C67.2864 8.52 67.3424 8.936 67.4544 9.16C67.5664 9.384 67.6224 9.52 67.6224 9.568C65.9104 9.568 65.0544 8.84 65.0544 7.384C65.0544 6.392 65.4304 5.4 66.1824 4.408C66.9504 3.4 67.9264 2.584 69.1104 1.96C70.3104 1.32 71.5024 0.999999 72.6864 0.999999C73.2784 0.999999 73.8864 1.112 74.5104 1.336L73.9584 13.984L79.2384 1.336H82.6944L80.1744 19H76.7184L78.2544 8.224L73.7424 19H70.4544L70.9344 8.176L66.9264 19H65.0064L71.1024 2.512ZM88.0251 2.704C86.9531 3.136 86.1211 3.8 85.5291 4.696C84.9531 5.576 84.6651 6.656 84.6651 7.936C84.6651 8.528 84.7211 8.944 84.8331 9.184C84.9451 9.408 85.0011 9.536 85.0011 9.568C84.1371 9.568 83.4891 9.392 83.0571 9.04C82.6411 8.672 82.4331 8.072 82.4331 7.24C82.4331 6.216 82.8491 5.224 83.6811 4.264C84.5291 3.288 85.6091 2.504 86.9211 1.912C88.2331 1.304 89.5451 0.999999 90.8571 0.999999C91.0811 0.999999 91.4011 1.016 91.8171 1.048L88.0011 19H84.5451L88.0251 2.704Z" fill="white"/>
</svg>
