<svg width="20" height="21" viewBox="0 0 20 21" fill="none" xmlns="http://www.w3.org/2000/svg">
<path fill-rule="evenodd" clip-rule="evenodd" d="M14.5276 14.0387L20.001 19.5121L18.5659 20.9462L13.0925 15.4738C11.6756 16.58 9.94519 17.1849 8.11935 17.1849C5.95047 17.1849 3.9115 16.3405 2.37897 14.806C0.845428 13.2734 0 11.2345 0 9.06558C0 6.8967 0.845428 4.85773 2.37897 3.3252C3.9115 1.79064 5.95047 0.946228 8.11935 0.946228C10.2882 0.946228 12.3272 1.79064 13.8597 3.3252C15.3933 4.85773 16.2387 6.8967 16.2387 9.06558C16.2387 10.8914 15.6328 12.6219 14.5276 14.0387ZM3.81407 13.3719C4.96398 14.5218 6.49245 15.1551 8.11936 15.1551C9.74628 15.1551 11.2747 14.5218 12.4247 13.3719C13.5756 12.222 14.2089 10.6925 14.2089 9.06561C14.2089 7.43971 13.5756 5.91023 12.4247 4.76032C11.2747 3.6094 9.74628 2.97609 8.11936 2.97609C6.49245 2.97609 4.96398 3.6094 3.81407 4.76032C2.66316 5.91023 2.02985 7.43971 2.02985 9.06561C2.02985 10.6925 2.66316 12.222 3.81407 13.3719Z" fill="#212121"/>
</svg>
