<svg width="30" height="30" viewBox="0 0 33 30" fill="none" xmlns="http://www.w3.org/2000/svg">
<path d="M29.683 13.4029C29.2289 14.6519 28.394 15.8376 27.1568 15.8376H8.40596L8.84174 18.881C8.94026 19.553 9.40698 20.0984 10.1048 20.0984H28.4199V21.3157H9.47329C8.42681 21.3157 7.75673 20.5177 7.57863 19.4897L5.05242 1.22926H0V0.0119031C0 0.0119031 3.8891 -0.0148789 5.05242 0.0119031C5.88102 0.0307722 6.31553 1.22926 6.31553 1.22926L6.66414 3.66399H29.683C31.433 3.66399 32.2483 4.37371 32.2092 6.09871L29.683 13.4029ZM29.683 4.88135H10.1048H7.57863H6.83845L8.23166 14.6202H8.84174H26.5252C27.6077 14.6202 28.0624 14.3122 28.4199 13.4029L30.9461 6.70739C31.1791 5.43099 30.5829 4.88135 29.683 4.88135ZM12.3153 22.5331C14.2339 22.5331 15.7888 24.0317 15.7888 25.8808C15.7888 27.73 14.2339 29.2286 12.3153 29.2286C10.3966 29.2286 8.84174 27.73 8.84174 25.8808C8.84174 24.0317 10.3966 22.5331 12.3153 22.5331ZM12.3153 28.0112C13.5361 28.0112 14.5257 27.058 14.5257 25.8808C14.5257 24.7036 13.5361 23.7504 12.3153 23.7504C11.0945 23.7504 10.1048 24.7036 10.1048 25.8808C10.1048 27.058 11.0945 28.0112 12.3153 28.0112ZM25.5779 22.5331C27.4965 22.5331 29.0514 24.0317 29.0514 25.8808C29.0514 27.73 27.4965 29.2286 25.5779 29.2286C23.6592 29.2286 22.1043 27.73 22.1043 25.8808C22.1043 24.0317 23.6592 22.5331 25.5779 22.5331ZM25.5779 28.0112C26.7993 28.0112 27.7883 27.058 27.7883 25.8808C27.7883 24.7036 26.7993 23.7504 25.5779 23.7504C24.3565 23.7504 23.3674 24.7036 23.3674 25.8808C23.3674 27.058 24.3565 28.0112 25.5779 28.0112Z" fill="white" stroke="white"/>
</svg>
